<svg version="1.1" viewBox="0.0 0.0 708.4461942257218 726.7926509186352" fill="none" stroke="none" stroke-linecap="square" stroke-miterlimit="10" xmlns:xlink="http://www.w3.org/1999/xlink" xmlns="http://www.w3.org/2000/svg"><clipPath id="p.0"><path d="m0 0l708.44617 0l0 726.79266l-708.44617 0l0 -726.79266z" clip-rule="nonzero"/></clipPath><g clip-path="url(#p.0)"><path fill="#000000" fill-opacity="0.0" d="m0 0l708.44617 0l0 726.79266l-708.44617 0z" fill-rule="evenodd"/><defs><linearGradient id="p.1" gradientUnits="userSpaceOnUse" gradientTransform="matrix(26.83286278118566 0.0 0.0 26.83286278118566 0.0 0.0)" spreadMethod="pad" x1="0.21079256526323936" y1="0.10016686279837998" x2="0.210695418348872" y2="26.933029643808187"><stop offset="0.0" stop-color="#999999"/><stop offset="1.0" stop-color="#000000"/></linearGradient></defs><path fill="url(#p.1)" d="m5.656168 362.69028l0 0c0 -198.8225 156.14333 -360.0 348.75592 -360.0l0 0c92.49582 0 181.20322 37.928463 246.60764 105.44156c65.40442 67.51309 102.148254 159.08049 102.148254 254.55843l0 0c0 198.82254 -156.14331 360.00003 -348.7559 360.00003l0 0c-192.61258 0 -348.75592 -161.17749 -348.75592 -360.00003z" fill-rule="evenodd"/><path stroke="#000000" stroke-width="1.0" stroke-linejoin="round" stroke-linecap="butt" d="m5.656168 362.69028l0 0c0 -198.8225 156.14333 -360.0 348.75592 -360.0l0 0c92.49582 0 181.20322 37.928463 246.60764 105.44156c65.40442 67.51309 102.148254 159.08049 102.148254 254.55843l0 0c0 198.82254 -156.14331 360.00003 -348.7559 360.00003l0 0c-192.61258 0 -348.75592 -161.17749 -348.75592 -360.00003z" fill-rule="evenodd"/><path fill="#ffffff" d="m478.43552 485.59653q-10.734375 4.6875 -19.4375 8.796875q-8.6875 4.09375 -22.75 8.578125q-11.90625 3.71875 -25.875 6.359375q-13.96875 2.640625 -30.765625 2.640625q-31.640625 0 -57.515625 -8.890625q-25.875 -8.890625 -45.015625 -27.84375q-18.75 -18.546875 -29.296875 -47.15625q-10.546875 -28.625 -10.546875 -66.515625q0 -35.9375 10.15625 -64.25q10.15625 -28.328125 29.296875 -47.85936q18.546875 -18.9375 44.8125 -28.890625q26.28125 -9.96875 58.3125 -9.96875q23.4375 0 46.765625 5.671875q23.34375 5.65625 51.859375 19.90625l0 45.906235l-2.921875 0q-24.03125 -20.125 -47.671875 -29.29686q-23.625 -9.1875 -50.578125 -9.1875q-22.0625 0 -39.75 7.140625q-17.671875 7.1249847 -31.53125 22.156235q-13.484375 14.65625 -21.0 37.015625q-7.515625 22.359375 -7.515625 51.65625q0 30.671875 8.296875 52.75q8.296875 22.0625 21.390625 35.921875q13.671875 14.453125 31.921875 21.390625q18.265625 6.9375 38.578125 6.9375q27.9375 0 52.34375 -9.5625q24.421875 -9.578125 45.703125 -28.71875l2.734375 0l0 45.3125z" fill-rule="nonzero"/></g></svg>