<svg version="1.1" viewBox="0.0 0.0 708.4461942257218 726.7926509186352" fill="none" stroke="none" stroke-linecap="square" stroke-miterlimit="10" xmlns:xlink="http://www.w3.org/1999/xlink" xmlns="http://www.w3.org/2000/svg"><clipPath id="p.0"><path d="m0 0l708.44617 0l0 726.79266l-708.44617 0l0 -726.79266z" clip-rule="nonzero"/></clipPath><g clip-path="url(#p.0)"><path fill="#000000" fill-opacity="0.0" d="m0 0l708.44617 0l0 726.79266l-708.44617 0z" fill-rule="evenodd"/><defs><linearGradient id="p.1" gradientUnits="userSpaceOnUse" gradientTransform="matrix(26.83286278118566 0.0 0.0 26.83286278118566 0.0 0.0)" spreadMethod="pad" x1="0.21079256526323936" y1="0.10016686279837998" x2="0.210695418348872" y2="26.933029643808187"><stop offset="0.0" stop-color="#ff0000"/><stop offset="1.0" stop-color="#660000"/></linearGradient></defs><path fill="url(#p.1)" d="m5.656168 362.69028l0 0c0 -198.8225 156.14333 -360.0 348.75592 -360.0l0 0c92.49582 0 181.20322 37.928463 246.60764 105.44156c65.40442 67.51309 102.148254 159.08049 102.148254 254.55843l0 0c0 198.82254 -156.14331 360.00003 -348.7559 360.00003l0 0c-192.61258 0 -348.75592 -161.17749 -348.75592 -360.00003z" fill-rule="evenodd"/><path stroke="#000000" stroke-width="1.0" stroke-linejoin="round" stroke-linecap="butt" d="m5.656168 362.69028l0 0c0 -198.8225 156.14333 -360.0 348.75592 -360.0l0 0c92.49582 0 181.20322 37.928463 246.60764 105.44156c65.40442 67.51309 102.148254 159.08049 102.148254 254.55843l0 0c0 198.82254 -156.14331 360.00003 -348.7559 360.00003l0 0c-192.61258 0 -348.75592 -161.17749 -348.75592 -360.00003z" fill-rule="evenodd"/><path fill="#000000" d="m452.84958 249.26842q17.78125 19.531235 27.25 47.85936q9.46875 28.3125 9.46875 64.25q0 35.9375 -9.671875 64.359375q-9.65625 28.40625 -27.046875 47.359375q-17.96875 19.71875 -42.484375 29.6875q-24.5 9.9687805 -55.953125 9.9687805q-30.65625 0 -55.765625 -10.1562805q-25.09375 -10.171875 -42.671875 -29.5q-17.578125 -19.34375 -27.046875 -47.46875q-9.46875 -28.125 -9.46875 -64.25q0 -35.546875 9.375 -63.765625q9.375 -28.234375 27.34375 -48.343735q17.1875 -19.140625 42.671875 -29.296875q25.484375 -10.15625 55.5625 -10.15625q31.25 0 56.15625 10.25q24.90625 10.25 42.28125 29.203125zm-3.515625 112.10936q0 -56.640625 -25.390625 -87.40625q-25.390625 -30.76561 -69.328125 -30.76561q-44.34375 0 -69.640625 30.76561q-25.28125 30.765625 -25.28125 87.40625q0 57.21875 25.78125 87.59375q25.78125 30.375 69.140625 30.375q43.359375 0 69.03125 -30.375q25.6875 -30.375 25.6875 -87.59375z" fill-rule="nonzero"/></g></svg>